<?xml version="1.0" encoding="utf-8"?>
<!DOCTYPE svg PUBLIC "-//W3C//DTD SVG 1.1//EN" "http://www.w3.org/Graphics/SVG/1.1/DTD/svg11.dtd">
<svg version="1.1" id="Capa_1" xmlns="http://www.w3.org/2000/svg" xmlns:xlink="http://www.w3.org/1999/xlink" x="0px" y="0px"
	 width="64px" height="64px" viewBox="223 223 64 64" enable-background="new 223 223 64 64" xml:space="preserve">
<path opacity="0.5" d="M255,283.224c-15.523,0-28.224-12.701-28.224-28.224s12.701-28.224,28.224-28.224
	s28.224,12.701,28.224,28.224S270.523,283.224,255,283.224z"/>
<g display="none">
	<path display="inline" fill="#FFFFFF" d="M248.6,269.4l19.2-14.4l-19.2-14.4V269.4z M255,223c-17.6,0-32,14.4-32,32s14.4,32,32,32
		s32-14.4,32-32S272.6,223,255,223z M255,281.88c-14.784,0-26.88-12.096-26.88-26.88s12.096-26.88,26.88-26.88
		s26.88,12.096,26.88,26.88S269.784,281.88,255,281.88z"/>
</g>
<g opacity="0.9">
	<path fill="#FFFFFF" d="M247.776,267.85L269.454,255l-21.678-12.85V267.85z"/>
</g>
<g opacity="0.5">
	<g>
		<path fill="#FFFFFF" d="M255,223c-17.6,0-32,14.4-32,32s14.4,32,32,32s32-14.4,32-32S272.6,223,255,223z M255,283.224
			c-15.523,0-28.224-12.701-28.224-28.224s12.701-28.224,28.224-28.224s28.224,12.701,28.224,28.224S270.523,283.224,255,283.224z"
			/>
	</g>
</g>
</svg>
