<svg version="1.1" id="gmap_marker" xmlns="http://www.w3.org/2000/svg" xmlns:xlink="http://www.w3.org/1999/xlink" width="48px" height="48px" viewBox="0 0 48 48" enable-background="new 0 0 48 48" xml:space="preserve"><style type="text/css">.st0{opacity:0.19;}.st1{fill:#ED6E6E;}.st2{fill:#B75555;}.st3{fill:#913D3D;}</style><ellipse class="st0" cx="23.5" cy="41.4" rx="9.3" ry="3.2"/><path class="st1" d="M23.5,5.2c-7.6,0-13.7,6.1-13.7,13.6s13.7,22.6,13.7,22.6s13.7-15.1,13.7-22.6S31.1,5.2,23.5,5.2z"/><circle class="st2" cx="23.5" cy="17.1" r="3.8"/><path class="st3" d="M23.5,14.1c2,0,3.5,1.4,3.8,3.4c0-0.2,0.1-0.3,0.1-0.4c0-2.1-1.7-3.8-3.8-3.8s-3.8,1.7-3.8,3.8c0,0.2,0,0.3,0.1,0.4C20,15.6,21.5,14.1,23.5,14.1z"/></svg>